<?xml version="1.0" standalone="no"?>
<!DOCTYPE svg PUBLIC "-//W3C//DTD SVG 20010904//EN"
 "http://www.w3.org/TR/2001/REC-SVG-20010904/DTD/svg10.dtd">
<svg version="1.0" xmlns="http://www.w3.org/2000/svg"
 width="1081.000000pt" height="1081.000000pt" viewBox="0 0 1081.000000 1081.000000"
 preserveAspectRatio="xMidYMid meet">
<metadata>
Created by potrace 1.14, written by Peter Selinger 2001-2017
</metadata>
<g transform="translate(0.000000,1081.000000) scale(0.100000,-0.100000)"
fill="#000000" stroke="none">
<path d="M4607 9162 l-1637 -1637 302 -301 c167 -165 492 -488 722 -716 l420
-416 -513 -512 -512 -512 -1094 1098 -1094 1099 2 -2815 2 -2815 173 -2 172
-3 0 2397 0 2398 800 -800 800 -800 -509 -507 -510 -508 121 -121 121 -121
1143 1143 1143 1143 247 -244 c358 -356 324 -317 324 -375 0 -27 1 -849 3
-1825 l2 -1775 183 -3 c142 -2 182 0 183 10 0 7 2 905 2 1995 l2 1983 200 200
200 200 597 -597 598 -598 -507 -507 -508 -508 65 -66 c85 -88 90 -93 137
-137 l40 -38 1421 1420 c781 782 1424 1421 1429 1421 4 0 8 -1074 8 -2387 l0
-2388 173 -2 c171 -2 172 -2 173 20 1 29 1 5590 0 5597 -1 3 -493 -487 -1094
-1088 l-1093 -1092 -586 592 c-322 326 -590 597 -594 602 -5 4 500 514 1131
1142 l1140 1133 -527 523 c-290 288 -802 796 -1139 1131 -336 334 -614 607
-617 607 -4 0 -744 -737 -1645 -1638z m2615 617 c530 -526 1027 -1021 1105
-1099 l141 -143 -201 -200 c-111 -110 -623 -620 -1138 -1133 l-936 -933 220
-223 c121 -123 402 -407 625 -631 l406 -408 1073 1073 1073 1073 0 -2740 0
-2740 -124 0 c-69 0 -127 3 -130 6 -4 3 -6 1093 -6 2422 0 1330 -4 2417 -8
2417 -4 0 -657 -651 -1452 -1445 l-1444 -1445 -91 90 -90 91 508 504 c345 342
506 508 501 517 -11 19 -1238 1248 -1246 1248 -3 0 -105 -98 -225 -217 l-218
-218 -5 -1985 -5 -1985 -130 -1 c-71 0 -135 1 -140 3 -7 2 -10 619 -10 1837 0
1403 -3 1832 -12 1825 -11 -10 -90 65 -496 469 l-107 107 -1143 -1143 -1142
-1142 -89 89 c-97 97 -96 94 -41 144 29 26 965 961 965 963 0 2 -382 385 -850
853 -838 838 -850 849 -851 813 0 -20 -1 -1111 -1 -2424 0 -1758 -3 -2388 -12
-2390 -9 -3 -210 -2 -241 1 -7 1 -10 920 -10 2736 0 1504 1 2735 3 2735 1 0
483 -483 1071 -1072 l1069 -1073 541 540 c297 297 541 544 541 550 0 5 -126
133 -279 285 -154 151 -476 468 -715 705 -240 236 -435 434 -433 439 5 15
3201 3215 3209 3213 4 -1 441 -432 970 -958z"/>
<path d="M5904 10037 c-331 -336 -2089 -2110 -2356 -2379 -71 -70 -128 -132
-128 -137 0 -4 280 -286 621 -625 l622 -617 289 289 289 289 -82 82 -82 82 88
89 88 89 81 -80 c44 -43 82 -79 85 -79 3 0 31 25 62 56 l57 57 0 -119 -1 -118
233 -228 c129 -125 238 -228 242 -228 4 0 285 276 625 613 340 338 812 805
1048 1040 l430 426 -447 443 c-246 244 -665 660 -932 925 l-484 481 -348 -351z
m761 -123 c226 -223 629 -624 897 -891 l487 -486 -249 -246 c-137 -135 -593
-588 -1015 -1006 -421 -418 -770 -760 -774 -760 -5 0 -104 93 -220 207 l-211
207 0 160 0 161 -81 -82 -81 -81 -84 84 -84 84 -119 -119 -120 -119 84 -85 83
-85 -254 -254 c-140 -140 -258 -253 -263 -251 -5 2 -274 266 -596 587 l-588
583 209 211 c115 115 263 265 329 332 66 67 545 551 1065 1075 520 524 995
1004 1055 1066 61 62 112 113 115 113 3 0 190 -182 415 -405z"/>
<path d="M5530 8723 c-167 -27 -333 -152 -405 -305 -40 -85 -45 -106 -52 -213
-10 -158 43 -292 162 -410 75 -75 157 -122 255 -145 70 -17 213 -16 264 3 l40
14 -46 31 c-98 67 -195 207 -229 327 -23 81 -17 266 10 343 40 115 144 251
241 313 l25 17 -45 12 c-46 12 -176 20 -220 13z m134 -42 l29 -1 -45 -42 c-53
-52 -117 -145 -145 -213 -51 -124 -60 -241 -30 -395 19 -94 92 -224 172 -302
l48 -48 -69 0 c-38 0 -89 5 -114 10 -187 42 -340 194 -384 382 -64 275 125
554 408 603 39 6 78 11 86 9 8 -1 28 -3 44 -3z"/>
<path d="M5560 6271 c0 -143 2 -261 5 -261 6 0 255 253 255 260 0 3 -59 63
-130 134 l-130 128 0 -261z m123 71 l77 -77 -78 -78 -78 -78 -1 156 c0 85 1
155 1 155 1 0 36 -35 79 -78z"/>
<path d="M5055 6310 c-115 -115 -207 -212 -205 -214 3 -3 93 -93 200 -201 128
-129 199 -193 210 -190 13 4 15 53 15 410 0 223 -2 405 -5 405 -3 0 -99 -94
-215 -210z m175 -111 c1 -118 1 -261 0 -318 l0 -105 -162 162 -163 162 160
160 c87 87 160 158 162 156 2 -1 3 -99 3 -217z"/>
<path d="M6028 1043 c-2 -5 -4 -170 -4 -368 l1 -360 35 0 35 0 0 113 c0 61 1
112 3 112 6 0 60 -46 117 -99 144 -133 141 -131 192 -131 l48 1 -50 47 c-28
26 -96 88 -152 139 l-101 91 37 34 c31 28 110 96 186 160 11 9 31 26 44 37
l24 21 -54 0 c-45 0 -59 -5 -84 -28 -16 -15 -59 -52 -95 -82 -36 -30 -67 -57
-70 -60 -47 -48 -45 -56 -45 171 l0 209 -32 0 c-17 0 -33 -3 -35 -7z"/>
<path d="M1297 1023 c-3 -5 -10 -51 -17 -103 -7 -52 -13 -102 -15 -110 -5 -25
-14 -93 -20 -140 -3 -25 -8 -52 -10 -60 -2 -8 -6 -40 -10 -70 -3 -30 -11 -94
-19 -142 l-13 -88 33 0 c18 0 35 3 37 8 3 4 8 34 11 67 4 33 9 69 11 80 3 11
7 43 10 70 6 55 35 265 39 279 1 5 59 -106 129 -247 69 -141 131 -257 137
-257 6 0 67 115 135 256 69 142 127 255 129 253 2 -2 7 -38 11 -79 4 -41 9
-78 10 -81 2 -3 6 -30 9 -60 3 -30 8 -63 10 -74 2 -11 9 -64 17 -118 l13 -98
35 3 c22 2 35 8 34 15 -2 7 -5 32 -8 55 -3 24 -7 52 -9 63 -2 12 -8 48 -12 80
-4 33 -8 62 -9 65 -1 3 -5 34 -9 70 -5 36 -10 74 -12 85 -2 11 -7 40 -10 65
-3 25 -8 54 -10 65 -2 11 -7 47 -10 80 -7 65 -11 78 -24 70 -7 -4 -87 -165
-225 -452 -33 -68 -62 -123 -65 -123 -3 0 -68 129 -145 286 -77 157 -143 288
-147 290 -3 2 -9 1 -11 -3z"/>
<path d="M7536 1018 c-2 -7 -12 -65 -21 -128 -9 -63 -18 -126 -20 -140 -2 -14
-6 -47 -10 -75 -3 -27 -8 -57 -10 -65 -2 -8 -6 -40 -9 -70 -4 -30 -12 -94 -19
-142 l-13 -88 32 0 c18 0 35 3 37 8 3 4 8 34 11 67 4 33 9 69 11 80 3 11 7 43
10 70 6 55 35 265 39 279 1 5 59 -106 129 -247 69 -141 131 -257 137 -257 6 0
67 115 135 256 69 142 127 255 129 253 2 -2 7 -38 11 -79 4 -41 9 -78 10 -81
2 -3 6 -30 9 -60 3 -30 8 -63 10 -74 2 -11 9 -64 17 -118 l13 -98 35 3 c21 2
35 8 34 15 -2 6 -5 29 -7 50 -7 49 -16 111 -21 143 -2 14 -7 43 -10 65 -2 22
-16 119 -30 215 -14 97 -26 188 -27 203 -1 15 -7 26 -13 24 -11 -4 -31 -43
-185 -360 -58 -120 -107 -217 -110 -217 -3 0 -68 129 -145 286 -77 157 -143
288 -147 290 -5 3 -10 -1 -12 -8z"/>
<path d="M2274 826 c-173 -80 -216 -306 -84 -444 68 -72 190 -100 289 -67 160
53 233 251 146 400 -50 86 -120 127 -225 131 -62 3 -84 -1 -126 -20z m196 -57
c96 -47 142 -146 115 -251 -15 -60 -54 -110 -102 -133 -218 -104 -408 170
-236 342 63 63 148 79 223 42z"/>
<path d="M2919 824 c-97 -45 -160 -150 -155 -259 5 -110 60 -195 158 -240 73
-34 185 -30 251 8 166 97 189 329 44 452 -77 66 -203 83 -298 39z m213 -62
c117 -62 148 -217 64 -326 -49 -64 -152 -92 -231 -62 -140 54 -179 240 -72
354 59 64 157 78 239 34z"/>
<path d="M3614 828 c-21 -10 -53 -32 -70 -49 l-31 -30 2 46 2 45 -36 0 -36 0
0 -265 0 -265 35 0 35 0 1 163 c1 147 3 168 23 209 56 116 226 144 277 46 21
-40 22 -57 23 -245 l1 -173 35 0 36 0 -1 180 c-2 194 -9 237 -47 288 -52 70
-163 92 -249 50z"/>
<path d="M4193 825 c-215 -107 -214 -400 2 -501 40 -19 63 -23 120 -20 75 3
114 18 168 66 l34 29 0 -137 0 -137 35 -3 35 -3 0 360 0 361 -37 0 -36 0 2
-46 3 -47 -32 30 c-60 55 -87 66 -168 69 -65 3 -84 0 -126 -21z m180 -46 c141
-39 195 -236 95 -348 -42 -46 -85 -65 -153 -65 -78 -1 -130 25 -172 87 -61 91
-53 194 21 270 59 61 127 79 209 56z"/>
<path d="M5520 840 c-119 -32 -200 -148 -195 -280 4 -106 66 -195 166 -239 68
-30 167 -24 238 14 29 16 56 35 58 42 7 17 24 17 22 1 -1 -7 -1 -25 0 -40 1
-25 5 -28 34 -28 l34 0 0 265 0 265 -34 0 c-34 0 -35 -1 -35 -62 l-1 -27 -44
38 c-61 55 -156 74 -243 51z m172 -71 c125 -63 158 -235 66 -338 -42 -47 -85
-65 -153 -65 -80 -1 -138 31 -180 98 -25 42 -30 59 -29 110 1 64 25 125 61
159 61 54 166 71 235 36z"/>
<path d="M6685 838 c-114 -42 -179 -140 -180 -268 0 -65 4 -82 30 -129 16 -29
45 -66 64 -82 101 -83 275 -76 369 14 45 43 65 82 49 94 -31 25 -45 21 -71
-16 -106 -152 -343 -99 -372 83 l-5 36 239 0 240 0 -3 39 c-7 86 -71 178 -151
216 -46 22 -165 30 -209 13z m198 -81 c38 -23 87 -87 87 -116 0 -8 -58 -11
-195 -11 -107 0 -195 3 -195 7 0 4 9 26 20 49 20 40 73 85 116 97 40 12 125
-2 167 -26z"/>
<path d="M8514 826 c-59 -28 -126 -98 -145 -152 -18 -52 -16 -160 3 -205 24
-55 87 -119 143 -145 40 -19 63 -23 125 -20 67 2 82 7 128 37 29 18 52 37 52
41 0 5 5 8 11 8 6 0 10 -12 9 -27 -4 -49 -1 -53 33 -53 l34 0 0 265 0 265 -34
0 c-35 0 -36 -3 -34 -59 l1 -33 -41 36 c-53 48 -80 58 -165 62 -57 2 -80 -2
-120 -20z m206 -57 c77 -38 123 -116 119 -203 -3 -61 -16 -95 -52 -135 -38
-43 -84 -64 -146 -67 -115 -5 -205 75 -217 196 -15 157 156 279 296 209z"/>
<path d="M9246 836 c-21 -8 -55 -28 -76 -45 -22 -17 -41 -31 -43 -31 -2 0 -3
18 -2 41 l2 40 -36 -3 -36 -3 0 -355 0 -355 35 -3 36 -3 -1 139 -1 140 41 -33
c60 -49 104 -64 182 -62 82 3 136 28 193 89 69 76 90 208 46 300 -22 47 -81
105 -131 130 -51 27 -156 34 -209 14z m147 -57 c55 -14 122 -83 138 -141 36
-136 -54 -267 -189 -274 -64 -3 -101 10 -150 51 -43 36 -61 74 -67 137 -13
159 115 268 268 227z"/>
<path d="M4729 803 c-2 -74 -1 -209 1 -268 8 -161 88 -237 241 -231 86 3 124
20 167 72 43 52 52 101 52 293 l0 171 -34 0 -33 0 -1 -167 c-1 -183 -5 -215
-33 -254 -23 -32 -86 -59 -137 -59 -51 0 -111 37 -134 82 -17 33 -20 61 -21
215 l-2 178 -32 3 c-32 3 -33 2 -34 -35z"/>
</g>
</svg>
